<svg width="89" height="100" viewBox="0 0 89 100" fill="none" xmlns="http://www.w3.org/2000/svg">
<g clip-path="url(#clip0)">
<path d="M44.1379 0.0165863L88.2759 24.9838V74.9345L44.1379 99.9018L0 74.9345V24.9838L44.1379 0.0165863Z" fill="white"/>
<path d="M80.3975 73.2025L45.6037 92.9059V77.5828L67.2896 65.6407L80.3975 73.2025ZM82.7792 71.0538V29.8807L70.0544 37.2256V63.7083L82.7792 71.0538V71.0538ZM7.74473 73.2021L42.5389 92.8897V77.5662L20.853 65.6407L7.74473 73.2025V73.2021ZM5.36301 71.0538V29.8807L18.0882 37.2256V63.7083L5.36301 71.0538V71.0538ZM6.84577 27.2159L42.5389 7.02866V21.8528L19.6706 34.4276L19.4871 34.5276L6.84577 27.2156V27.2159ZM81.2802 27.2159L45.6037 7.02832V21.8525L68.4554 34.4438L68.6385 34.5438L81.2802 27.2152V27.2159Z" fill="#8ED6FB"/>
<path d="M42.5391 74.0852L21.1529 62.3094V39.008L42.5391 51.3501V74.0852V74.0852ZM45.6039 74.0852L66.9901 62.3263V39.008L45.6039 51.3501V74.0852V74.0852ZM22.5853 36.3097L44.0715 24.5008L65.5404 36.3097L44.0715 48.7018L22.5853 36.3097V36.3097Z" fill="#1C78C0"/>
</g>
<defs>
<clipPath id="clip0">
<rect width="88.2759" height="100" fill="white"/>
</clipPath>
</defs>
</svg>
