<svg width="100" height="100" viewBox="0 0 100 100" fill="none" xmlns="http://www.w3.org/2000/svg">
<path d="M19.5963 0C8.81985 0 0 8.81965 0 19.5963V80.4069C0 91.1834 8.81965 100 19.5963 100H80.4069C91.1835 100 100 91.1835 100 80.4069V19.5963C100 8.81985 91.1835 0 80.4069 0H19.5963ZM24.525 16.502C29.6921 16.502 32.8748 19.8941 32.973 24.3529C32.973 28.7133 29.6919 32.2008 24.4251 32.2008H24.3281C19.2594 32.2008 15.9833 28.7135 15.9833 24.3529C15.9833 19.8942 19.3586 16.502 24.5249 16.502H24.525ZM69.0525 37.3421C78.9897 37.3421 86.4391 43.8372 86.4391 57.7947V83.8509H71.3372V59.5416C71.3372 53.433 69.1515 49.2653 63.6862 49.2653C59.514 49.2653 57.0271 52.0744 55.9352 54.7879C55.5364 55.7588 55.4383 57.1147 55.4383 58.4728V83.8509H40.3364C40.3364 83.8509 40.5346 42.6716 40.3364 38.4078H55.4414V44.843C57.4483 41.7466 61.0381 37.342 69.0525 37.342V37.3421ZM16.8741 38.4111H31.976V83.8511H16.8741V38.4111V38.4111Z" fill="#FAFAFA"/>
</svg>
