<svg width="101" height="100" viewBox="0 0 101 100" fill="none" xmlns="http://www.w3.org/2000/svg">
<mask id="mask0" mask-type="alpha" maskUnits="userSpaceOnUse" x="0" y="0" width="101" height="100">
<path d="M71.1922 99.451C71.991 99.7625 72.8455 99.9063 73.7023 99.8734C74.5591 99.8405 75.3999 99.6316 76.1725 99.2597L96.8422 89.314C97.9067 88.8015 98.805 87.9988 99.4335 86.9984C100.062 85.998 100.395 84.8404 100.395 83.6589V16.2195C100.395 15.0381 100.062 13.8806 99.4335 12.8802C98.8049 11.8799 97.9067 11.0773 96.8422 10.5648L76.1729 0.618739C75.005 0.0567321 73.6912 -0.128313 72.4135 0.0892172C71.1357 0.306747 69.9572 0.916093 69.041 1.83291L29.4713 37.9333L12.2351 24.8498C11.4576 24.2597 10.4981 23.9603 9.52291 24.0036C8.54776 24.047 7.61856 24.4304 6.89653 25.0872L1.36858 30.116C-0.454257 31.7739 -0.456225 34.6416 1.36385 36.3022L16.3115 49.9392L1.36385 63.5758C-0.456225 65.2369 -0.454257 68.1042 1.36858 69.7624L6.89653 74.7908C7.61852 75.4477 8.54769 75.8312 9.52284 75.8746C10.498 75.918 11.4576 75.6187 12.2351 75.0286L29.4713 61.9447L69.041 98.0451C69.6528 98.6579 70.3854 99.1367 71.1922 99.451V99.451ZM75.3119 27.1483L45.2875 49.9392L75.3119 72.7298V27.1483V27.1483Z" fill="white"/>
</mask>
<g mask="url(#mask0)">
<path d="M96.9037 10.58L76.2179 0.62015C75.0496 0.0576897 73.7354 -0.127749 72.4571 0.0894944C71.1788 0.306738 69.9997 0.915923 69.0828 1.83275L1.36471 63.5757C-0.456546 65.2367 -0.454184 68.104 1.36944 69.7623L6.90093 74.7906C7.62356 75.4477 8.55332 75.8312 9.52904 75.8746C10.5048 75.918 11.4649 75.6187 12.2431 75.0284L93.7911 13.1639C96.5269 11.0887 100.456 13.0398 100.456 16.4737V16.2335C100.456 15.0523 100.123 13.8951 99.4945 12.895C98.866 11.8948 97.968 11.0924 96.9037 10.58V10.58Z" fill="#0065A9"/>
<path d="M96.9036 89.2977L76.2177 99.2576C75.0494 99.8199 73.7353 100.005 72.457 99.7881C71.1788 99.5708 69.9996 98.9617 69.0827 98.045L1.36459 36.3021C-0.456668 34.6414 -0.454306 31.7737 1.36932 30.1158L6.90081 25.0871C7.62349 24.4301 8.55327 24.0467 9.52899 24.0033C10.5047 23.96 11.4648 24.2594 12.2429 24.8497L93.791 86.7139C96.5268 88.7891 100.456 86.8379 100.456 83.4036V83.6442C100.456 84.8254 100.123 85.9826 99.4943 86.9827C98.8658 87.9829 97.9678 88.7853 96.9036 89.2977V89.2977Z" fill="#007ACC"/>
<path d="M76.1528 99.2652C74.9843 99.8273 73.67 100.012 72.3916 99.795C71.1132 99.5776 69.934 98.9683 69.017 98.0515C71.3324 100.366 75.2918 98.7266 75.2918 95.4518V4.43806C75.2918 1.16326 71.3324 -0.476506 69.017 1.83885C69.934 0.92195 71.1132 0.31261 72.3915 0.095095C73.6699 -0.12242 74.9842 0.0626372 76.1528 0.624675L96.8351 10.5707C97.9 11.0829 98.7987 11.8853 99.4276 12.8857C100.057 13.8861 100.39 15.0438 100.39 16.2255V83.6652C100.39 86.0766 99.0083 88.2751 96.8351 89.32L76.1528 99.2656V99.2652Z" fill="#1F9CF0"/>
<path d="M71.1922 99.451C71.9911 99.7624 72.8455 99.9062 73.7023 99.8733C74.559 99.8403 75.3999 99.6315 76.1725 99.2596L96.8418 89.3136C97.9064 88.8012 98.8047 87.9986 99.4334 86.9983C100.062 85.9979 100.395 84.8404 100.395 83.6589V16.2195C100.395 15.038 100.062 13.8806 99.4335 12.8802C98.8049 11.8799 97.9067 11.0773 96.8422 10.5648L76.1721 0.618321C75.0042 0.0564047 73.6905 -0.128591 72.4129 0.0889368C71.1352 0.306465 69.9568 0.915759 69.0406 1.83249L29.4713 37.9333L12.2351 24.8498C11.4576 24.2596 10.4981 23.9603 9.52291 24.0036C8.54776 24.047 7.61856 24.4304 6.89653 25.0872L1.36858 30.116C-0.454257 31.7738 -0.456225 34.6415 1.36385 36.3022L16.3115 49.9392L1.36385 63.5758C-0.456225 65.2368 -0.454257 68.1041 1.36858 69.7624L6.89653 74.7908C7.61852 75.4477 8.54769 75.8311 9.52284 75.8745C10.498 75.918 11.4576 75.6187 12.2351 75.0285L29.4713 61.9447L69.0406 98.0451C69.6525 98.6579 70.3853 99.1366 71.1922 99.451V99.451ZM75.3119 27.1478L45.2875 49.9392L75.3119 72.7297V27.1482V27.1478Z" fill="url(#paint0_linear)" fill-opacity="0.25"/>
</g>
<defs>
<linearGradient id="paint0_linear" x1="50.1977" y1="0.000259399" x2="50.1977" y2="99.8779" gradientUnits="userSpaceOnUse">
<stop stop-color="white"/>
<stop offset="1" stop-color="white" stop-opacity="0"/>
</linearGradient>
</defs>
</svg>
