<svg width="67" height="100" viewBox="0 0 67 100" fill="none" xmlns="http://www.w3.org/2000/svg">
<g clip-path="url(#clip0)">
<path d="M16.6667 99.9999C25.8667 99.9999 33.3333 92.5333 33.3333 83.3333V66.6666H16.6667C7.46667 66.6666 0 74.1333 0 83.3333C0 92.5333 7.46667 99.9999 16.6667 99.9999Z" fill="#0ACF83"/>
<path d="M0 50.0001C0 40.8001 7.46667 33.3334 16.6667 33.3334H33.3333V66.6667H16.6667C7.46667 66.6667 0 59.2001 0 50.0001Z" fill="#A259FF"/>
<path d="M0 16.6667C0 7.46667 7.46667 0 16.6667 0H33.3333V33.3333H16.6667C7.46667 33.3333 0 25.8667 0 16.6667Z" fill="#F24E1E"/>
<path d="M33.3334 0H50C59.2 0 66.6667 7.46667 66.6667 16.6667C66.6667 25.8667 59.2 33.3333 50 33.3333H33.3334V0Z" fill="#FF7262"/>
<path d="M66.6667 50.0001C66.6667 59.2001 59.2 66.6667 50 66.6667C40.8 66.6667 33.3334 59.2001 33.3334 50.0001C33.3334 40.8001 40.8 33.3334 50 33.3334C59.2 33.3334 66.6667 40.8001 66.6667 50.0001Z" fill="#1ABCFE"/>
</g>
<defs>
<clipPath id="clip0">
<rect width="66.6667" height="100" fill="white"/>
</clipPath>
</defs>
</svg>
