<svg width="100" height="100" viewBox="0 0 100 100" fill="none" xmlns="http://www.w3.org/2000/svg">
<path d="M49.9023 0.390625C58.2357 0.390625 65.0391 0.488281 70.3125 0.683594C74.8047 0.878906 78.8086 1.66016 82.3242 3.02734C85.7096 4.32943 88.6393 6.21745 91.1133 8.69141C93.5872 11.1654 95.4753 14.0951 96.7773 17.4805C98.1445 20.9961 98.9258 25 99.1211 29.4922C99.3164 34.7656 99.4141 41.569 99.4141 49.9023C99.4141 58.2357 99.3164 65.0391 99.1211 70.3125C98.9258 74.8047 98.1445 78.8086 96.7773 82.3242C95.4753 85.7096 93.5872 88.6393 91.1133 91.1133C88.6393 93.5872 85.7096 95.4753 82.3242 96.7773C78.8086 98.1445 74.8047 98.9258 70.3125 99.1211C65.0391 99.3164 58.2357 99.4141 49.9023 99.4141C41.569 99.4141 34.7656 99.3164 29.4922 99.1211C25 98.9258 20.9961 98.1445 17.4805 96.7773C14.0951 95.4753 11.1654 93.5872 8.69141 91.1133C6.21745 88.6393 4.32943 85.7096 3.02734 82.3242C1.66016 78.8086 0.878906 74.8047 0.683594 70.3125C0.488281 65.0391 0.390625 58.2357 0.390625 49.9023C0.390625 41.569 0.488281 34.7656 0.683594 29.4922C0.878906 25 1.66016 20.9961 3.02734 17.4805C4.32943 14.0951 6.21745 11.1654 8.69141 8.69141C11.1654 6.21745 14.0951 4.32943 17.4805 3.02734C20.9961 1.66016 25 0.878906 29.4922 0.683594C34.7656 0.488281 41.569 0.390625 49.9023 0.390625ZM49.9023 6.83594C41.2435 6.83594 34.1797 6.93359 28.7109 7.12891C25.1953 7.25911 21.9401 7.8776 18.9453 8.98438C14.2578 10.9375 10.9375 14.2578 8.98438 18.9453C7.8776 21.9401 7.25911 25.1953 7.12891 28.7109C6.93359 34.1797 6.83594 41.2435 6.83594 49.9023C6.83594 58.5612 6.93359 65.625 7.12891 71.0938C7.25911 74.6094 7.8776 77.8646 8.98438 80.8594C10.9375 85.5469 14.2578 88.8672 18.9453 90.8203C21.9401 91.9271 25.1953 92.5456 28.7109 92.6758C34.1797 92.8711 41.2435 92.9688 49.9023 92.9688C58.5612 92.9688 65.625 92.8711 71.0938 92.6758C74.6094 92.5456 77.8646 91.9271 80.8594 90.8203C85.5469 88.8672 88.8672 85.5469 90.8203 80.8594C91.9271 77.8646 92.5456 74.6094 92.6758 71.0938C92.8711 65.625 92.9688 58.5612 92.9688 49.9023C92.9688 41.2435 92.8711 34.1797 92.6758 28.7109C92.5456 25.1953 91.9271 21.9401 90.8203 18.9453C88.8672 14.2578 85.5469 10.9375 80.8594 8.98438C77.8646 7.8776 74.6094 7.25911 71.0938 7.12891C65.625 6.93359 58.5612 6.83594 49.9023 6.83594ZM49.9023 69.7266C55.3711 69.7266 60.0423 67.7897 63.916 63.916C67.7897 60.0423 69.7266 55.3711 69.7266 49.9023C69.7266 44.4336 67.7897 39.7624 63.916 35.8887C60.0423 32.015 55.3711 30.0781 49.9023 30.0781C44.4336 30.0781 39.7624 32.015 35.8887 35.8887C32.015 39.7624 30.0781 44.4336 30.0781 49.9023C30.0781 55.3711 32.015 60.0423 35.8887 63.916C39.7624 67.7897 44.4336 69.7266 49.9023 69.7266ZM49.9023 24.5117C56.9336 24.5117 62.9232 26.9857 67.8711 31.9336C72.819 36.8815 75.293 42.8711 75.293 49.9023C75.293 56.9336 72.819 62.9232 67.8711 67.8711C62.9232 72.819 56.9336 75.293 49.9023 75.293C42.8711 75.293 36.8815 72.819 31.9336 67.8711C26.9857 62.9232 24.5117 56.9336 24.5117 49.9023C24.5117 42.8711 26.9857 36.8815 31.9336 31.9336C36.8815 26.9857 42.8711 24.5117 49.9023 24.5117ZM82.3242 23.5352C82.3242 25.1628 81.7383 26.5462 80.5664 27.6855C79.3945 28.8249 77.9622 29.3945 76.2695 29.3945C74.6419 29.3945 73.2585 28.8249 72.1191 27.6855C70.9798 26.5462 70.4102 25.1628 70.4102 23.5352C70.4102 21.8424 70.9798 20.4102 72.1191 19.2383C73.2585 18.0664 74.6419 17.4805 76.2695 17.4805C77.8971 17.4805 79.3132 18.0827 80.5176 19.2871C81.722 20.4915 82.3242 21.9076 82.3242 23.5352Z" fill="#FAFAFA"/>
</svg>
