<svg width="90" height="100" viewBox="0 0 90 100" fill="none" xmlns="http://www.w3.org/2000/svg">
<path d="M2.77478 25.2135L45.1939 0.515289L87.6128 25.2135V74.57L45.1939 99.2682L2.77478 74.57V25.2135Z" fill="#CC0000"/>
<path d="M46.3831 49.8719L85.8287 27.1562L87.4145 72.9447L46.3831 97.7221V49.8719V49.8719Z" fill="white"/>
<path d="M86.4238 25.7686L86.3046 74.2927L45.1545 98.1582L44.9562 50.4665L86.4238 25.7686V25.7686ZM51.8147 54.4306L51.9332 86.3045L65.6106 78.3359L65.5708 54.3122L72.4691 50.2285V74.332L79.367 70.2885L79.4067 38.0184L51.8144 54.431L51.8147 54.4306Z" fill="#CC0000"/>
<path d="M47.8898 0.872093C45.9866 -0.19829 42.934 -0.19829 41.0312 0.872093L3.44899 22.478C1.54585 23.5484 0.0395813 26.2442 0.0395813 28.385V71.5968C0.0395813 73.777 1.58557 76.4331 3.44899 77.5038L41.0312 99.1094C42.934 100.18 45.9866 100.18 47.8898 99.1094L85.4716 77.5038C87.3748 76.4334 88.8814 73.7373 88.8814 71.5968V28.385C88.8814 26.2045 87.3351 23.5484 85.472 22.478L47.8898 0.872093ZM81.2302 23.469C83.133 24.5393 83.133 26.3233 81.2302 27.3937L48.3257 46.3038C46.4229 47.3742 43.3702 47.3742 41.4675 46.3038L8.08697 27.1163C6.18383 26.046 6.18383 24.262 8.08697 23.1916L40.9912 4.2815C42.8943 3.21112 45.9466 3.21112 47.8497 4.2815L81.2295 23.469H81.2302ZM2.97303 31.5167C2.97303 29.3366 4.51937 28.4644 6.38244 29.5345L40.0403 48.8808C41.9427 49.9512 43.4493 52.647 43.4493 54.7878V93.163C43.4493 95.3435 41.9033 96.2153 40.0403 95.1453L6.38244 75.7989C4.47965 74.7286 2.97303 72.0327 2.97303 69.892V31.5167V31.5167ZM49.872 94.5505C47.9689 95.6209 46.4626 94.7488 46.4626 92.5683V54.7878C46.4626 52.6073 48.0086 49.9512 49.8716 48.8808L82.5382 30.1292C84.4413 29.0589 85.9476 29.931 85.9476 32.1115V69.892C85.9476 72.0725 84.4016 74.7286 82.5382 75.7989L49.8716 94.5505H49.872Z" fill="#910505"/>
</svg>
