<svg width="100" height="100" viewBox="0 0 100 100" fill="none" xmlns="http://www.w3.org/2000/svg">
<path d="M65.6669 0C58.9878 0.6125 50.1711 2.97083 39.3461 7.1625C36.0987 9.51655 32.7028 11.6585 29.1794 13.575L29.2211 14.2333C29.4878 14.2333 29.7878 14.0542 30.2211 13.8333C30.6628 13.7917 30.9253 13.9667 30.9253 14.4042L31.6253 14.0125L31.9753 13.9667L32.0169 14.275C32.0586 14.5792 29.6586 16.4542 24.9045 19.8167L25.292 20.425L24.9419 20.475L24.2044 20.2083C24.2044 20.425 23.9003 20.5625 23.2044 20.6042L23.2461 20.9542L24.0336 21.8292C23.6727 21.8238 23.3161 21.7488 22.9836 21.6083C21.4544 21.7375 19.9253 22.8708 18.442 24.9667L18.8336 25.5792C20.142 24.4 20.8836 23.7875 21.1003 23.7875L21.1919 24.7458C20.9753 24.7458 20.6253 24.9208 20.192 25.1375L21.0211 26.3667C22.5419 24.6931 24.2877 23.2389 26.2086 22.0458C27.1669 22.3083 27.6503 22.5667 27.6503 22.9167L28.3503 22.875C33.4544 19.0792 38.5169 16.3667 43.5336 14.6667L43.5836 15.325C42.6669 16.7208 42.0128 17.4125 41.6628 17.4542C41.7044 17.9375 41.8794 18.3292 42.1419 18.725C42.2294 19.6 39.9586 25.3208 35.3294 35.9708C24.7669 60.6792 15.9503 78.9167 8.83362 90.7875C8.83362 91.0042 9.00445 91.3542 9.22529 91.7458C10.9711 91.3125 12.1045 90.925 12.5836 90.4875L12.9836 90.4375L13.0253 91.0958L13.6836 91.05L14.3753 90.6583C14.3753 90.875 14.6378 90.9625 15.0753 90.9167L15.1253 91.5792C15.167 92.2333 14.8128 93.2333 13.9836 94.5875C13.242 95.4208 12.5045 97.1167 11.6753 99.6917L11.717 100L12.3753 99.9583C15.2086 96.775 17.392 93.625 18.8753 90.5667C27.2128 88.125 33.5419 85.725 37.9503 83.3667C42.3586 82.975 45.7669 81.8458 48.0336 79.925L47.9878 79.575L46.3253 80.0542L45.9336 80.0958L45.8919 79.7458C49.1253 79.2625 51.3919 78.525 52.6169 77.5625C58.9461 72.675 63.7003 69.2292 66.9294 67.1792C76.9294 59.8458 81.6419 52.775 81.0753 46.0542C81.0336 45.3542 78.8044 42.6042 74.4836 37.8042C74.3961 36.8875 75.9211 35.575 78.9753 33.8292L87.6669 26.1875C89.5836 23.7 90.7669 19.6875 91.1586 14.1458L91.0294 12.8333C90.6794 8.95 87.8794 5.80417 82.5544 3.4C79.4169 1.2625 73.7836 0.129167 65.6669 0ZM76.1878 4.32083C82.6461 4.58333 85.9669 5.71667 86.1419 7.725L85.8794 8.38333L76.1878 4.32083ZM70.0128 9.80833C74.4419 9.74167 76.7503 10.9208 76.9794 13.4042L77.6294 13.3542L77.5003 11.6958L78.2003 11.6542C79.9003 12.5708 80.8128 13.7042 80.9003 15.0542C80.9878 15.9708 80.5086 17.1125 79.4211 18.4667C78.9836 18.5083 78.7211 18.2 78.6794 17.5458L77.9794 17.5958L77.8086 19.5542C74.8836 23.9208 72.7878 26.1458 71.4753 26.2792C70.2961 27.8917 69.5503 28.725 69.2461 28.7667C68.3294 29.8583 65.8461 31.7333 61.7461 34.35C60.3919 34.4833 55.3669 36.4042 46.6794 40.2C46.2463 39.9948 45.7629 39.9195 45.2878 39.9833L45.2378 39.3708C45.1544 38.1042 45.6836 36.5333 46.9461 34.6125C47.6044 31.0292 48.3419 28.9792 49.1711 28.5L56.4128 12.225C56.3294 11.2208 57.8586 10.4333 61.0419 9.9125L62.0919 9.82083L62.1753 10.7417C64.1074 10.4368 66.0437 10.159 67.9836 9.90833C68.6587 9.85219 69.3355 9.81884 70.0128 9.80833V9.80833ZM85.0919 11.4333H85.2044C85.7836 11.4833 86.4044 12.5292 87.0628 14.5333L87.1044 15.1458C86.7503 15.1875 86.1044 14.1375 85.1419 12.0458L85.0919 11.4333V11.4333ZM44.1086 21.7792H44.4086L44.5003 22.7375C44.1919 22.7792 43.7628 23.2208 43.2378 24.1375L43.1878 23.4875C43.8003 22.7458 44.1044 22.1708 44.1044 21.7792H44.1086ZM23.3336 22.3083L23.3753 22.6083C23.1545 22.6083 22.8086 22.7875 22.3753 23.0042L22.0211 23.0458L21.9795 22.4375L23.3336 22.3083ZM41.1878 28.5833L41.3169 29.8958L40.9669 29.9375L40.8378 28.6333L41.1878 28.5833V28.5833ZM40.3544 30.9458C40.2711 32.0375 40.0044 32.6 39.4378 32.6458L39.0878 32.6875C39.4794 31.9458 39.7003 31.425 39.6586 31.0333L40.3586 30.9458H40.3544ZM38.9169 34.3458L38.9586 34.6542L38.3461 35.6958L37.6878 35.7458L37.6461 35.4375C38.3003 35.3958 38.6086 35.05 38.5628 34.3958L38.9169 34.3458V34.3458ZM37.4253 37.4083L37.2586 39.0167L36.9044 39.0583L36.7794 37.4458L37.4253 37.4042V37.4083ZM72.8294 38.575L74.2669 39.4583C74.3086 39.8917 74.0919 40.1542 73.6586 40.1958C73.0461 39.8042 72.5669 39.6292 72.2169 39.6292L72.1294 38.6708L72.8294 38.5792V38.575ZM45.1086 42.2875L45.1586 42.9L43.8003 43.0375L43.7586 42.4208L45.1086 42.2875ZM67.4544 44.5583C68.4128 44.9958 68.9003 45.4333 68.9461 45.7792L68.9878 46.0917C68.0711 46.175 67.2378 45.6958 66.4544 44.65L67.4544 44.5583V44.5583ZM78.2878 45.6083C79.0294 45.9167 79.3753 46.225 79.4211 46.5292L79.6378 49.1C79.3336 49.8 79.0294 50.15 78.6794 50.15L78.2878 45.6083V45.6083ZM60.8086 45.8792C64.3086 45.8208 66.9836 46.6458 68.8169 48.4L68.9419 49.7125C67.3753 54.2542 65.6294 56.875 63.7544 57.7042L55.0211 64.6458C48.5211 68.9208 45.0211 71.0542 44.5003 71.0958C34.1544 76.8167 27.7003 79.7417 25.2086 79.9583L24.8128 80C25.1628 78.7792 29.7503 69.3542 38.6544 51.6333C42.5836 51.2833 48.7794 49.4458 57.2044 46.1333L59.2544 45.9583C59.7878 45.9167 60.3086 45.8875 60.8086 45.875V45.8792ZM48.0794 47.9208L48.1211 48.2292L46.7294 48.3583L46.6794 48.05L48.0794 47.9208ZM26.3045 69.0458C25.867 71.275 25.3836 72.4125 24.9045 72.4583L24.8628 72.1458C24.7753 71.0125 25.2545 70.0083 26.3045 69.0458ZM55.8919 70.4458L55.9336 71.0583C55.9753 71.3208 54.9753 72.1458 53.0128 73.5875C47.2044 76.425 43.8044 78.3875 42.7961 79.3917C36.5128 81.5708 33.4128 82.9292 33.4544 83.45C27.8711 85.6792 24.2044 87.2958 22.4628 88.3C22.0669 88.3417 21.4586 88.1708 20.6711 87.8208C20.5836 86.6875 21.0586 85.7625 22.192 85.0208C23.1503 84.9375 24.1211 85.0667 24.992 85.4625C26.0378 84.9375 27.8253 84.3208 30.4044 83.7125L30.3544 83.0625L28.3044 83.2292C28.5669 82.8833 30.5336 81.9667 34.2878 80.4375L35.3336 80.3542L35.3753 80.6583C33.6294 80.7917 32.6253 81.3542 32.4044 82.2708C32.4461 82.6625 32.6711 82.8833 33.1044 82.8417C34.3711 81.9667 35.0253 81.4917 35.0253 81.3583C37.5586 80.8792 44.5003 77.2125 55.8919 70.4458ZM24.2919 73.4583L24.3336 73.7583C24.3753 74.1958 24.1586 74.4667 23.7211 74.5083L23.6795 74.2C23.6378 73.8042 23.8544 73.5458 24.2919 73.4583V73.4583ZM40.0003 77.3625C40.3711 77.3542 40.5794 77.5667 40.6169 77.9083C39.7878 77.9958 38.2586 78.65 35.9461 79.9583L35.5961 80L35.5544 79.35C37.1714 79.2434 38.6927 78.5465 39.8294 77.3917C39.8878 77.3792 39.9461 77.3667 39.9961 77.3625H40.0003ZM24.7336 82.5417L24.7753 82.8833C24.5086 82.8833 24.2003 83.0625 23.7628 83.2792L23.1128 83.3208C23.0711 83.0167 23.2461 82.7542 23.6836 82.6208L24.7336 82.5375V82.5417ZM16.742 86.5125L17.4795 86.8125C17.217 88.775 16.6545 89.7833 15.6461 89.8708C14.9805 89.5512 14.2463 89.4009 13.5086 89.4333L13.4211 88.475C13.3795 88.0792 13.6003 87.8625 14.0795 87.7333C14.517 87.6917 14.7753 87.9875 14.8211 88.6417C15.9961 87.2042 16.6545 86.5125 16.7378 86.5125H16.742Z" fill="black"/>
</svg>
