<svg width="100" height="100" viewBox="0 0 100 100" fill="none" xmlns="http://www.w3.org/2000/svg">
<path d="M49.9609 7.45116C25.8105 7.44139 6.25 26.9922 6.25 51.123C6.25 70.2051 18.4863 86.4258 35.5273 92.3828C37.8223 92.959 37.4707 91.3281 37.4707 90.2148V82.6465C24.2188 84.1992 23.6816 75.4297 22.793 73.9648C20.9961 70.8984 16.748 70.1172 18.0176 68.6523C21.0352 67.0996 24.1113 69.043 27.6758 74.3066C30.2539 78.125 35.2832 77.4805 37.832 76.8457C38.3887 74.5508 39.5801 72.5 41.2207 70.9082C27.4902 68.4472 21.7676 60.0683 21.7676 50.1074C21.7676 45.2734 23.3594 40.8301 26.4844 37.2461C24.4922 31.3379 26.6699 26.2793 26.9629 25.5273C32.6367 25.0195 38.5352 29.5898 38.9941 29.9512C42.2168 29.082 45.8984 28.623 50.0195 28.623C54.1602 28.623 57.8516 29.1015 61.1035 29.9805C62.207 29.1406 67.6758 25.2148 72.9492 25.6933C73.2324 26.4453 75.3613 31.3867 73.4863 37.2168C76.6504 40.8105 78.2617 45.293 78.2617 50.1367C78.2617 60.1172 72.5 68.5058 58.7305 70.9277C59.9099 72.0876 60.8463 73.4708 61.4852 74.9966C62.124 76.5225 62.4524 78.1603 62.4512 79.8144V90.8008C62.5293 91.6797 62.4512 92.5488 63.916 92.5488C81.2109 86.7187 93.6621 70.3808 93.6621 51.1328C93.6621 26.9922 74.0918 7.45116 49.9609 7.45116V7.45116Z" fill="#FAFAFA"/>
</svg>
