<svg width="71" height="100" viewBox="0 0 71 100" fill="none" xmlns="http://www.w3.org/2000/svg">
<g clip-path="url(#clip0)">
<path d="M35.4139 99.7473L6.55459 91.7357L0.123291 19.6027H70.7909L64.3529 91.7246L35.4139 99.7473V99.7473Z" fill="#264DE4"/>
<path d="M58.8412 87.1322L64.3426 25.5006H35.457V93.615L58.8412 87.1322V87.1322Z" fill="#2965F1"/>
<path d="M14.8668 52.2537L15.6596 61.1005H35.4571V52.2537H14.8668Z" fill="#EBEBEB"/>
<path d="M13.2734 34.3476L14.0776 43.1944H35.4571V34.3476H13.2734V34.3476Z" fill="#EBEBEB"/>
<path d="M35.457 75.23L35.4182 75.2402L25.5656 72.5798L24.9357 65.5241H16.0548L17.2941 79.415L35.4163 84.4455L35.457 84.4344V75.23Z" fill="#EBEBEB"/>
<path d="M16.7546 0H27.4693V4.48089H21.2355V8.96177H27.4698V13.4424H16.7546V0Z" fill="black"/>
<path d="M29.6125 0H40.3274V3.8964H34.0933V4.67562H40.3274V13.6374H29.6127V9.54571H35.8468V8.76648H29.6122V0H29.6125Z" fill="black"/>
<path d="M42.4706 0H53.1856V3.8964H46.9515V4.67562H53.1856V13.6374H42.4706V9.54571H48.7047V8.76648H42.4709V0H42.4706Z" fill="black"/>
<path d="M55.9908 52.2537L57.5878 34.3476H35.4265V43.1944H47.8925L47.0875 52.2537H35.4265V61.1005H46.3205L45.2933 72.5742L35.4263 75.2373V84.4412L53.5628 79.4149L53.6958 77.9201L55.775 54.6293L55.9908 52.2537V52.2537Z" fill="white"/>
</g>
<defs>
<clipPath id="clip0">
<rect width="70.9141" height="100" fill="white"/>
</clipPath>
</defs>
</svg>
