<svg width="100" height="100" viewBox="0 0 100 100" fill="none" xmlns="http://www.w3.org/2000/svg">
<path d="M49.9609 7.45092C25.8105 7.44115 6.25 26.9919 6.25 51.1228C6.25 70.2048 18.4863 86.4255 35.5273 92.3826C37.8223 92.9587 37.4707 91.3279 37.4707 90.2146V82.6462C24.2188 84.199 23.6816 75.4294 22.793 73.9646C20.9961 70.8982 16.748 70.1169 18.0176 68.6521C21.0352 67.0994 24.1113 69.0427 27.6758 74.3064C30.2539 78.1247 35.2832 77.4802 37.832 76.8455C38.3887 74.5505 39.5801 72.4997 41.2207 70.9079C27.4902 68.447 21.7676 60.0681 21.7676 50.1072C21.7676 45.2732 23.3594 40.8298 26.4844 37.2458C24.4922 31.3376 26.6699 26.279 26.9629 25.5271C32.6367 25.0193 38.5352 29.5896 38.9941 29.9509C42.2168 29.0818 45.8984 28.6228 50.0195 28.6228C54.1602 28.6228 57.8516 29.1013 61.1035 29.9802C62.207 29.1404 67.6758 25.2146 72.9492 25.6931C73.2324 26.4451 75.3613 31.3865 73.4863 37.2165C76.6504 40.8103 78.2617 45.2927 78.2617 50.1365C78.2617 60.1169 72.5 68.5056 58.7305 70.9275C59.9099 72.0873 60.8463 73.4706 61.4852 74.9964C62.124 76.5222 62.4524 78.16 62.4512 79.8142V90.8005C62.5293 91.6794 62.4512 92.5486 63.916 92.5486C81.2109 86.7185 93.6621 70.3806 93.6621 51.1326C93.6621 26.9919 74.0918 7.45092 49.9609 7.45092V7.45092Z" fill="black"/>
</svg>
