<svg width="100" height="100" viewBox="0 0 100 100" fill="none" xmlns="http://www.w3.org/2000/svg">
<path d="M0 0H100V100H0V0Z" fill="#F7DF1E"/>
<path d="M26.2936 83.5667L33.9459 78.9354C35.4225 81.553 36.7655 83.7678 39.987 83.7678C43.0749 83.7678 45.0221 82.56 45.0221 77.8616V45.9092H54.4194V77.9944C54.4194 87.7276 48.7139 92.1581 40.3897 92.1581C32.8721 92.1581 28.5084 88.2647 26.2932 83.5659" fill="black"/>
<path d="M59.5241 82.5599L67.1757 78.1299C69.1901 81.4193 71.8081 83.8357 76.4394 83.8357C80.3335 83.8357 82.8163 81.8888 82.8163 79.2037C82.8163 75.9818 80.2655 74.8404 75.9695 72.9615L73.6206 71.9537C66.8405 69.0681 62.3433 65.4431 62.3433 57.7908C62.3433 50.7424 67.7132 45.372 76.1042 45.372C82.0784 45.372 86.3745 47.4533 89.462 52.8904L82.1448 57.5896C80.5335 54.7033 78.789 53.5623 76.1038 53.5623C73.3515 53.5623 71.6062 55.3076 71.6062 57.5896C71.6062 60.4088 73.3515 61.5506 77.3788 63.2959L79.728 64.3025C87.7163 67.7263 92.2136 71.2166 92.2136 79.0697C92.2136 87.5283 85.5683 92.1595 76.6405 92.1595C67.9144 92.1595 62.2757 87.9978 59.5237 82.5603" fill="black"/>
</svg>
