<svg width="71" height="100" viewBox="0 0 71 100" fill="none" xmlns="http://www.w3.org/2000/svg">
<g clip-path="url(#clip0)">
<path d="M70.7909 19.6027L64.3529 91.7246L35.4139 99.7473L6.55459 91.7357L0.123291 19.6027H70.7909Z" fill="#E44D26"/>
<path d="M35.457 93.615L58.8412 87.1322L64.3426 25.5006H35.457V93.615Z" fill="#F16529"/>
<path d="M22.9419 43.1944H35.4571V34.3476H13.2734L13.4851 36.721L15.6596 61.1005H35.4571V52.2537H23.7504L22.9419 43.1944V43.1944Z" fill="#EBEBEB"/>
<path d="M24.9357 65.5241H16.0548L17.2941 79.415L35.4163 84.4455L35.457 84.4344V75.23L35.4182 75.2402L25.5656 72.5798L24.9357 65.5241V65.5241Z" fill="#EBEBEB"/>
<path d="M6.69812 0H11.194V4.44183H15.3067V0H19.8028V13.451H15.307V8.94681H11.1942V13.451H6.6984V0H6.69812Z" fill="black"/>
<path d="M25.7147 4.46066H21.7573V0H34.1712V4.46066H30.2113V13.451H25.7155V4.46066H25.7152H25.7147Z" fill="black"/>
<path d="M36.1413 0H40.8291L43.7128 4.72632L46.5937 0H51.2834V13.451H46.8058V6.78393L43.7128 11.5665H43.6352L40.5402 6.78393V13.451H36.1413V0Z" fill="black"/>
<path d="M53.5208 0H58.018V9.00499H64.3404V13.451H53.5205V0H53.5208Z" fill="black"/>
<path d="M35.4266 61.1005H46.3205L45.2934 72.5742L35.4263 75.2374V84.4412L53.5629 79.4149L53.6959 77.9202L55.7751 54.6293L55.9909 52.2537H35.4266V61.1005Z" fill="white"/>
<path d="M35.4266 43.1728V43.1944H56.7959L56.9732 41.206L57.3765 36.721L57.5879 34.3476H35.4266V43.173V43.1728Z" fill="white"/>
</g>
<defs>
<clipPath id="clip0">
<rect width="70.9141" height="100" fill="white"/>
</clipPath>
</defs>
</svg>
