<svg width="97" height="100" viewBox="0 0 97 100" fill="none" xmlns="http://www.w3.org/2000/svg">
<g clip-path="url(#clip0)">
<path d="M17.4186 97.1417L0 97.7459L8.92917 88.6675L17.4193 97.1425L17.4186 97.1417Z" fill="#F15A24"/>
<path d="M96.4319 52.1136C93.1959 77.3458 70.1156 95.1726 44.8876 91.9329C19.655 88.6961 1.82814 65.6166 5.06451 40.3863C8.30276 15.1545 31.3781 -2.67432 56.6126 0.565834C81.8437 3.80144 99.6747 26.8833 96.4323 52.1128" fill="#F15A24"/>
<path d="M62.4934 33.1561C65.5199 36.3735 62.5328 43.9807 62.5328 43.9807C62.5328 43.9807 59.5806 54.7356 42.6764 68.6826L39.5211 65.5852L60.9794 43.6538L61.3942 43.0939C61.965 42.1636 62.4378 33.0936 62.4934 33.1561" fill="#999999"/>
<path d="M62.4934 33.1561C65.5199 36.3735 62.5328 43.9807 62.5328 43.9807C62.5328 43.9807 59.5806 54.7356 42.6764 68.6826L39.5211 65.5852L60.9794 43.6538L61.3942 43.0939C61.965 42.1636 62.4378 33.0936 62.4934 33.1561V33.1561Z" stroke="white" stroke-width="0.23975" stroke-linecap="round" stroke-linejoin="round"/>
<path d="M34.8863 61.0255L62.4481 33.0766C63.8469 34.7376 64.1447 36.5274 63.7386 39.0774C63.4651 40.8437 60.4147 44.3732 60.4147 44.3732L39.5208 65.5853" fill="#666666"/>
<path d="M34.8863 61.0255L62.4481 33.0766C63.8469 34.7376 64.1447 36.5274 63.7386 39.0774C63.4651 40.8437 60.4147 44.3732 60.4147 44.3732L39.5208 65.5853" stroke="white" stroke-width="0.150125" stroke-linecap="round" stroke-linejoin="round"/>
<path d="M62.4933 33.1751L34.8861 61.0262L34.9418 60.972L34.9315 60.9762L28.0819 54.227C42.3652 36.4599 51.6005 33.1474 51.6005 33.1474C51.6005 33.1474 57.6126 30.8004 61.9016 32.6217C62.2312 32.7982 62.3743 32.8997 62.4925 33.1758" fill="#FF931E"/>
<path d="M62.4933 33.1751L34.8861 61.0262L34.9418 60.972L34.9315 60.9762L28.0819 54.227C42.3652 36.4599 51.6005 33.1474 51.6005 33.1474C51.6005 33.1474 57.6126 30.8004 61.9016 32.6217C62.2312 32.7982 62.3743 32.8997 62.4925 33.1758L62.4933 33.1751V33.1751Z" stroke="white" stroke-width="0.23975" stroke-linecap="round" stroke-linejoin="round"/>
<path d="M42.6762 68.6817C36.0899 74.1059 27.6607 82.6271 16.2031 88.5703L18.7516 99.465L7.9501 88.826L34.8857 61.0256" fill="#999999"/>
<path d="M42.6762 68.6817C36.0899 74.1059 27.6607 82.6271 16.2031 88.5703L18.7516 99.465L7.9501 88.826L34.8857 61.0256" stroke="white" stroke-width="0.23975" stroke-linecap="round" stroke-linejoin="round"/>
<path d="M28.2665 54.3178L34.9578 60.983L19.4995 64.3315L28.1184 54.1978L28.2673 54.3182L28.2665 54.3178Z" fill="#F15A24"/>
<path d="M28.2665 54.3178L34.9578 60.983L19.4995 64.3315L28.1184 54.1978L28.2673 54.3182L28.2665 54.3178Z" stroke="white" stroke-width="0.23975" stroke-linecap="round" stroke-linejoin="round"/>
<path d="M59.8575 25.0932C59.2011 31.0178 63.4666 36.3512 69.3909 37.0118C75.3106 37.6697 80.6488 33.4008 81.3094 27.4784C81.9678 21.5561 77.6958 16.2171 71.7738 15.5587C65.8488 14.9042 60.5147 19.1674 59.8575 25.0932" fill="#999999"/>
<path d="M59.8575 25.0932C59.2011 31.0178 63.4666 36.3512 69.3909 37.0118C75.3106 37.6697 80.6488 33.4008 81.3094 27.4784C81.9678 21.5561 77.6958 16.2171 71.7738 15.5587C65.8488 14.9042 60.5147 19.1674 59.8575 25.0932V25.0932Z" stroke="white" stroke-width="0.23975" stroke-linecap="round" stroke-linejoin="round"/>
<path d="M79.7595 32.2491C81.7504 29.3403 81.6474 24.9888 81.2478 23.6998C80.7573 22.121 79.6603 19.554 77.7467 18.2195L67.6277 27.54C67.6277 27.54 75.4042 35.8956 75.6069 35.9233C75.691 35.9331 77.944 34.9013 79.7595 32.2491" fill="#666666"/>
<path d="M79.7595 32.2491C81.7504 29.3403 81.6474 24.9888 81.2478 23.6998C80.7573 22.121 79.6603 19.554 77.7467 18.2195L67.6277 27.54C67.6277 27.54 75.4042 35.8956 75.6069 35.9233C75.691 35.9331 77.944 34.9013 79.7595 32.2491V32.2491ZM77.7179 24.9479C77.7179 24.9479 78.691 27.3369 77.4565 29.1956L77.7179 24.9479Z" stroke="white" stroke-width="0.23975" stroke-linecap="round" stroke-linejoin="round"/>
<path d="M39.7592 65.5891L28.5918 67.5766L35.3327 60.5728" fill="#666666"/>
<path d="M28.5259 54.367L42.7229 67.7284M39.7592 65.5894L28.5918 67.5769L35.3327 60.5731L39.7592 65.5894Z" stroke="white" stroke-width="0.23975" stroke-linecap="round" stroke-linejoin="round"/>
</g>
<defs>
<clipPath id="clip0">
<rect width="96.9697" height="100" fill="white"/>
</clipPath>
</defs>
</svg>
