<svg width="113" height="100" viewBox="0 0 113 100" fill="none" xmlns="http://www.w3.org/2000/svg">
<g clip-path="url(#clip0)">
<path d="M92.3171 32.379C91.1222 31.9691 89.9171 31.5893 88.7031 31.24C88.907 30.4067 89.0947 29.5834 89.2614 28.7747C91.9974 15.4935 90.2088 4.79396 84.0996 1.27115C78.2421 -2.10604 68.6627 1.41545 58.9882 9.83519C58.0347 10.6665 57.1024 11.5217 56.1921 12.4001C55.5827 11.816 54.9626 11.2432 54.332 10.6821C44.1925 1.67948 34.0294 -2.11481 27.9268 1.41808C22.0746 4.8058 20.3417 14.8641 22.8048 27.451C23.0499 28.6976 23.3266 29.9377 23.6346 31.1703C22.1961 31.579 20.8079 32.0141 19.4794 32.4773C7.59167 36.622 0 43.1172 0 49.8545C0 56.8128 8.15 63.7922 20.5316 68.0242C21.5354 68.3659 22.5475 68.6825 23.5671 68.9738C23.236 70.3013 22.942 71.6378 22.6855 72.9817C20.3373 85.3501 22.1711 95.1707 28.0075 98.5369C34.0355 102.013 44.1531 98.4405 54.0044 89.8286C54.8032 89.1285 55.5845 88.4085 56.3474 87.6694C57.3331 88.6205 58.3452 89.544 59.3825 90.4387C68.9254 98.6501 78.35 101.966 84.1807 98.5905C90.2031 95.1041 92.1605 84.5541 89.6193 71.7185C89.4191 70.713 89.1946 69.7124 88.9461 68.7176C89.6566 68.5071 90.3539 68.2905 91.0338 68.065C103.906 63.8005 112.281 56.9058 112.281 49.8545C112.281 43.0926 104.444 36.5536 92.3171 32.379V32.379ZM89.5254 63.5124C88.9114 63.7155 88.2816 63.9115 87.6395 64.1023C86.2184 59.6036 84.3009 54.8203 81.9539 49.8777C84.1934 45.0532 86.0373 40.3308 87.4184 35.8615C88.5671 36.194 89.6816 36.5444 90.7561 36.9141C101.146 40.4913 107.484 45.7795 107.484 49.8545C107.484 54.1948 100.639 59.8295 89.5254 63.5124V63.5124ZM84.914 72.6501C86.0377 78.3255 86.1978 83.4571 85.4535 87.469C84.7851 91.0738 83.4403 93.4769 81.7772 94.4396C78.239 96.4878 70.6719 93.8255 62.511 86.8027C61.5462 85.9709 60.6048 85.1124 59.6877 84.2282C62.8518 80.7681 66.0136 76.7457 69.0996 72.2782C74.5276 71.7966 79.6557 71.0089 84.3061 69.9339C84.5351 70.858 84.7386 71.7641 84.914 72.6501V72.6501ZM38.2789 94.0856C34.8219 95.3062 32.0684 95.3413 30.4039 94.3817C26.8623 92.3391 25.3899 84.4536 27.3982 73.8764C27.637 72.6265 27.9103 71.3835 28.218 70.1488C32.8171 71.1663 37.9079 71.8979 43.3487 72.3391C46.4557 76.7106 49.7088 80.7286 52.9873 84.247C52.2905 84.9212 51.5773 85.5781 50.8482 86.2172C46.4917 90.0251 42.1263 92.7269 38.2789 94.0856V94.0856ZM22.0833 63.4856C16.6083 61.6141 12.0868 59.1821 8.98772 56.5282C6.20263 54.1435 4.79693 51.7755 4.79693 49.8545C4.79693 45.7659 10.8921 40.551 21.0583 37.0067C22.2921 36.5769 23.5833 36.1712 24.9232 35.7904C26.3285 40.3606 28.1715 45.1391 30.3956 49.9712C28.1425 54.8747 26.2732 59.7295 24.8544 64.3536C23.9237 64.087 22.9998 63.7976 22.0833 63.4856V63.4856ZM27.5123 26.5295C25.4022 15.7457 26.8035 7.61106 30.3303 5.5694C34.0864 3.39483 42.3925 6.49527 51.1474 14.269C51.7183 14.777 52.2799 15.2954 52.832 15.8238C49.5697 19.3269 46.3465 23.315 43.2671 27.6606C37.9864 28.1501 32.9316 28.9361 28.2842 29.9891C27.9979 28.8427 27.7405 27.6893 27.5123 26.5299V26.5295ZM75.9452 38.4891C74.8475 36.593 73.7091 34.7208 72.5307 32.8738C76.1132 33.3269 79.5456 33.9282 82.7689 34.6633C81.8013 37.765 80.5952 41.0076 79.1754 44.3321C78.1377 42.3631 77.0607 40.4151 75.9452 38.4891V38.4891ZM56.1943 19.2519C58.4066 21.6488 60.6224 24.3247 62.8018 27.2282C58.3807 27.0194 53.9523 27.0185 49.5311 27.2255C51.7127 24.3488 53.9474 21.6764 56.1943 19.2519ZM36.3167 38.522C35.2151 40.4325 34.1582 42.3684 33.1469 44.3282C31.7504 41.0155 30.5553 37.758 29.5794 34.6124C32.7829 33.8957 36.1991 33.3097 39.7588 32.865C38.5673 34.7233 37.4196 36.6094 36.3167 38.5216V38.522ZM39.861 67.1852C36.1833 66.7747 32.7158 66.219 29.5132 65.5216C30.5044 62.3198 31.7259 58.9931 33.1526 55.6093C34.1679 57.5705 35.2292 59.5076 36.3355 61.419C37.4732 63.3839 38.6513 65.3084 39.861 67.1852ZM56.3268 80.7948C54.0531 78.3422 51.7855 75.6286 49.5711 72.7102C51.7211 72.7944 53.9127 72.8374 56.1404 72.8374C58.4289 72.8374 60.6912 72.7861 62.918 72.6869C60.7316 75.658 58.5241 78.3755 56.3268 80.7948ZM79.2206 55.4365C80.7215 58.8576 81.9864 62.1668 82.9908 65.3137C79.7355 66.0567 76.2206 66.6549 72.5171 67.0992C73.7039 65.2179 74.8531 63.3131 75.964 61.3861C77.0936 59.4273 78.1794 57.4436 79.2206 55.4365V55.4365ZM71.8092 58.9896C70.1084 61.9441 68.312 64.8426 66.4228 67.6804C63.0007 67.9227 59.571 68.0431 56.1404 68.0413C52.6461 68.0413 49.2474 67.9326 45.9746 67.7203C44.0361 64.8891 42.2054 61.9855 40.4864 59.0159H40.4868C38.776 56.062 37.1779 53.0442 35.6961 49.969C37.1741 46.893 38.7673 43.8738 40.4724 40.9176L40.4719 40.9181C42.1763 37.9612 43.9924 35.07 45.9162 32.251C49.2553 31.9983 52.6794 31.8668 56.1399 31.8668H56.1404C59.6167 31.8668 63.0452 31.9997 66.3833 32.254C68.2877 35.0689 70.0922 37.9501 71.7934 40.8922C73.5041 43.8418 75.1184 46.8464 76.6338 49.901C75.134 52.9868 73.5248 56.0183 71.8092 58.9896V58.9896ZM81.7039 5.42641C85.4636 7.59483 86.9259 16.3391 84.5636 27.8062C84.4127 28.5378 84.2434 29.283 84.0592 30.0387C79.4004 28.9633 74.3421 28.1637 69.0461 27.6668C65.961 23.2733 62.764 19.279 59.5548 15.8212C60.3959 15.0104 61.257 14.2207 62.1373 13.4527C70.4268 6.23913 78.1741 3.39089 81.7039 5.42641V5.42641ZM56.1404 39.8282C61.6776 39.8282 66.1667 44.3172 66.1667 49.8545C66.1667 55.3918 61.6776 59.8808 56.1404 59.8808C50.6031 59.8808 46.114 55.3918 46.114 49.8545C46.114 44.3172 50.6031 39.8282 56.1404 39.8282V39.8282Z" fill="#00D8FF"/>
</g>
<defs>
<clipPath id="clip0">
<rect width="112.281" height="100" fill="white"/>
</clipPath>
</defs>
</svg>
